# xmcd
#
# Track frame offsets:
#	182
#	11050
#	23272
#	34280
#	51657
#	64162
#	76680
#	86662
#	100405
#	111767
#	124757
#	138112
#	156717
#	170367
#	182800
#	196380
#
# Disc length: 2792
#
# Revision: 1
# Processed by: cddbd v1.5.1PL0 Copyright (c) Steve Scherf et al.
# Submitted via: dBpowerAMP V4.0
# Normalized: r0:TDELIM( - )
#
DISCID=d60ae610
DTITLE=Various Artist - Country Classics
DYEAR=1900
DGENRE=Country
TTITLE0=Leroy van Dyke - Walk on by
TTITLE1=Tammy Wynette - Stand by your man
TTITLE2=George Jones - Tender Years
TTITLE3=Ray Price - For the good times
TTITLE4=Hank Williams jr. - Eleven Roses
TTITLE5=Tom T. Hall - The year that Clayton Delaney died
TTITLE6=Mel Tillis - I ain't never
TTITLE7=Jimmy Dean - Big Bad John
TTITLE8=Roger Miller - King of the Road
TTITLE9=Johnny Horton - North to Alaska
TTITLE10=Lynn Anderson - Rose garden
TTITLE11=Johnny Cash - Sunday morning coming down
TTITLE12=Faron Young - It's four in the morning
TTITLE13=Jerry Lee Lewis - There must be more to love than this
TTITLE14=David Houston - Almost persuaded
TTITLE15=Marty Robbins - Devil Woman
EXTD=
EXTT0=
EXTT1=
EXTT2=
EXTT3=
EXTT4=
EXTT5=
EXTT6=
EXTT7=
EXTT8=
EXTT9=
EXTT10=
EXTT11=
EXTT12=
EXTT13=
EXTT14=
EXTT15=
PLAYORDER=
